<svg xmlns="http://www.w3.org/2000/svg" viewBox="0 0 200 200">
  <!-- Body -->
  <ellipse cx="100" cy="130" rx="55" ry="48" fill="#8B5E3C"/>
  <!-- Belly -->
  <ellipse cx="100" cy="138" rx="35" ry="25" fill="#A0724E"/>
  <!-- Head -->
  <circle cx="100" cy="80" r="40" fill="#8B5E3C"/>
  <!-- Mane -->
  <path d="M75,45 Q80,30 90,42" stroke="#5C3A1E" stroke-width="5" fill="none" stroke-linecap="round"/>
  <path d="M85,38 Q90,22 100,35" stroke="#5C3A1E" stroke-width="5" fill="none" stroke-linecap="round"/>
  <path d="M95,35 Q100,20 110,35" stroke="#5C3A1E" stroke-width="5" fill="none" stroke-linecap="round"/>
  <path d="M105,38 Q115,25 120,42" stroke="#5C3A1E" stroke-width="5" fill="none" stroke-linecap="round"/>
  <!-- Ears -->
  <ellipse cx="62" cy="60" rx="12" ry="18" fill="#8B5E3C" stroke="#7A5030" stroke-width="1"/>
  <ellipse cx="62" cy="60" rx="7" ry="12" fill="#A0724E"/>
  <ellipse cx="138" cy="60" rx="12" ry="18" fill="#8B5E3C" stroke="#7A5030" stroke-width="1"/>
  <ellipse cx="138" cy="60" rx="7" ry="12" fill="#A0724E"/>
  <!-- Muzzle -->
  <ellipse cx="100" cy="95" rx="18" ry="14" fill="#FDEBD0"/>
  <!-- Nostrils -->
  <circle cx="95" cy="94" r="3" fill="#3A3A3A"/>
  <circle cx="105" cy="94" r="3" fill="#3A3A3A"/>
  <!-- Eyes -->
  <circle cx="82" cy="78" r="7" fill="white"/>
  <circle cx="118" cy="78" r="7" fill="white"/>
  <circle cx="84" cy="79" r="5" fill="#3A3A3A"/>
  <circle cx="120" cy="79" r="5" fill="#3A3A3A"/>
  <circle cx="86" cy="77" r="2" fill="white"/>
  <circle cx="122" cy="77" r="2" fill="white"/>
  <!-- Cheeks -->
  <circle cx="68" cy="90" r="7" fill="#FFB6C1" opacity="0.35"/>
  <circle cx="132" cy="90" r="7" fill="#FFB6C1" opacity="0.35"/>
  <!-- Mouth -->
  <path d="M94,103 Q100,109 106,103" stroke="#3A3A3A" stroke-width="1.5" fill="none" stroke-linecap="round"/>
  <!-- Paws -->
  <ellipse cx="75" cy="172" rx="12" ry="8" fill="#7A5030"/>
  <ellipse cx="125" cy="172" rx="12" ry="8" fill="#7A5030"/>
</svg>