<svg xmlns="http://www.w3.org/2000/svg" viewBox="0 0 200 200">
  <!-- Body -->
  <rect x="15" y="55" width="170" height="80" rx="12" fill="#FFD93D"/>
  <!-- Roof -->
  <rect x="15" y="55" width="170" height="20" rx="8" fill="#F0C419"/>
  <!-- Windows -->
  <rect x="25" y="80" width="25" height="25" rx="4" fill="#87CEEB"/>
  <rect x="55" y="80" width="25" height="25" rx="4" fill="#87CEEB"/>
  <rect x="85" y="80" width="25" height="25" rx="4" fill="#87CEEB"/>
  <rect x="115" y="80" width="25" height="25" rx="4" fill="#87CEEB"/>
  <!-- Windshield -->
  <rect x="148" y="78" width="30" height="28" rx="5" fill="#B0E0E6"/>
  <!-- Wheels -->
  <circle cx="55" cy="140" r="20" fill="#3A3A3A"/>
  <circle cx="55" cy="140" r="10" fill="#888"/>
  <circle cx="150" cy="140" r="20" fill="#3A3A3A"/>
  <circle cx="150" cy="140" r="10" fill="#888"/>
  <!-- Door -->
  <rect x="25" y="108" width="25" height="22" rx="3" fill="#E6B800" stroke="#D4A800" stroke-width="1"/>
  <!-- Eyes -->
  <circle cx="155" cy="88" r="4" fill="#3A3A3A"/>
  <circle cx="168" cy="88" r="4" fill="#3A3A3A"/>
  <circle cx="156" cy="87" r="1.5" fill="white"/>
  <circle cx="169" cy="87" r="1.5" fill="white"/>
  <!-- Headlight -->
  <circle cx="183" cy="110" r="6" fill="#FFD93D" stroke="#E6B800" stroke-width="1"/>
</svg>